#!OML:ASF E:\emotionWalksFemale\Project 1\Capture day 1\Session 1\Female1.ASF
:FULLY-SPECIFIED
:DEGREES
2335
root 8.58406 15.1927 37.7026 2.1171 46.8653 -358.003
lowerback 7.38 -0.410548 2.4663
upperback 2.54132 -0.255195 3.0868
thorax -1.51018 -0.108308 1.8182
lowerneck 0.969369 5.76888 6.39066
upperneck -3.86834 7.54844 -14.9308
head -0.44838 3.95824 -5.53553
rclavicle -6.12257e-014 -1.74931e-014
rhumerus -26.9374 9.26156 -82.5543
rradius 31.9038
rwrist 16.077
rhand -4.4993 -53.2713
rfingers 7.12502
rthumb 21.2744 -82.1237
lclavicle -6.12257e-014 -1.74931e-014
lhumerus -30.5658 -36.295 108.664
lradius 39.3214
lwrist -10.9356
lhand -3.43805 -39.3158
lfingers 7.12502
lthumb 22.2935 -10.5818
rfemur -9.38601 3.92269 25.0451
rtibia 33.2296
rfoot -42.955 -43.7334
rtoes 47.2674
lfemur -14.1827 0.413075 -27.816
ltibia 29.9253
lfoot -26.8628 25.9108
ltoes 19.6967
2336
root 8.61754 15.194 37.6908 2.40335 48.0097 -357.912
lowerback 7.04941 -0.370553 2.68028
upperback 2.49225 -0.202341 3.03882
thorax -1.37892 -0.080915 1.64162
lowerneck 0.732999 5.83719 6.05391
upperneck -3.71419 7.64912 -14.6962
head -0.37725 3.99704 -5.39501
rclavicle -1.59028e-014 6.36111e-015
rhumerus -26.9712 8.9098 -82.3672
rradius 31.5612
rwrist 17.2548
rhand -4.65172 -53.5337
rfingers 7.12502
rthumb 21.128 -82.4025
lclavicle -1.59028e-014 6.36111e-015
lhumerus -30.4849 -36.752 108.729
lradius 39.6542
lwrist -10.3052
lhand -3.4968 -38.9857
lfingers 7.12502
lthumb 22.2371 -10.2449
rfemur -9.84964 2.49387 24.7593
rtibia 33.8202
rfoot -42.5778 -43.3132
rtoes 47.3169
lfemur -14.2581 -0.38197 -27.985
ltibia 29.7288
lfoot -26.7608 25.5001
ltoes 18.9618
2337
root 8.64396 15.1966 37.6864 2.60212 49.1861 -357.744
lowerback 6.88768 -0.347132 2.59947
upperback 2.47326 -0.183036 3.04835
thorax -1.30868 -0.070992 1.69413
lowerneck 0.376559 5.91969 5.58661
upperneck -3.43672 7.77877 -14.3389
head -0.258699 4.04196 -5.18879
rclavicle 1.11518e-013 -1.59028e-014
rhumerus -26.9892 8.78801 -82.3106
rradius 31.1761
rwrist 18.0464
rhand -5.1931 -54
rfingers 7.12502
rthumb 20.6079 -82.9261
lclavicle 1.11518e-013 -1.59028e-014
lhumerus -30.4185 -36.7394 108.664
lradius 40.3139
lwrist -9.23233
lhand -2.18444 -38.377
lfingers 7.12502
lthumb 23.4965 -9.79195
rfemur -10.1135 0.724164 24.4027
rtibia 34.3931
rfoot -38.5141 -44.2874
rtoes 43.9018
lfemur -14.1707 -1.13629 -28.1263
ltibia 29.6094
lfoot -27.2461 24.5668
ltoes 20.7535
2338
root 8.66942 15.1948 37.6841 2.48562 50.2578 -357.633
lowerback 7.12386 -0.305663 2.7073
upperback 2.46376 -0.11028 2.93979
thorax -1.45078 -0.0346818 1.51715
lowerneck 0.250255 6.08027 5.84798
upperneck -3.14652 8.02793 -14.4797
head -0.110689 4.15182 -5.25725
rclavicle -2.84262e-014 2.54444e-014
rhumerus -27.2615 8.82494 -82.5326
rradius 31.0979
rwrist 17.8815
rhand -4.05663 -53.6474
rfingers 7.12502
rthumb 21.6996 -82.4512
lclavicle -2.84262e-014 2.54444e-014
lhumerus -30.4228 -37.0352 108.479
lradius 41.0949
lwrist -7.49995
lhand 0.0976449 -36.9977
lfingers 7.12502
lthumb 25.6839 -8.71046
rfemur -10.0137 -0.189547 24.1988
rtibia 35.0299
rfoot -41.1886 -42.3804
rtoes 47.3518
lfemur -13.8007 -1.73615 -28.2406
ltibia 29.5176
lfoot -27.5638 23.7599
ltoes 22.1489
2339
root 8.6931 15.1885 37.6851 2.17518 51.2955 -357.711
lowerback 7.32938 -0.232238 2.82182
upperback 2.50539 0.00572607 2.92133
thorax -1.5226 0.0241589 1.42505
lowerneck 1.7732 6.30947 7.31245
upperneck -4.22475 8.30004 -15.7486
head -0.524568 4.37988 -5.95952
rclavicle 1.53064e-014 1.27222e-014
rhumerus -27.4976 9.01958 -82.681
rradius 31.18
rwrist 17.5378
rhand -3.21419 -53.485
rfingers 7.12502
rthumb 22.5084 -82.1932
lclavicle 1.53064e-014 1.27222e-014
lhumerus -30.3576 -37.4847 108.39
lradius 41.4177
lwrist -6.67613
lhand 0.464489 -36.4984
lfingers 7.12502
lthumb 26.0352 -8.26237
rfemur -9.94066 -1.25727 24.1219
rtibia 35.7875
rfoot -41.3515 -41.9758
rtoes 47.9865
lfemur -13.3781 -2.06544 -28.2598
ltibia 29.3557
lfoot -27.2351 23.3232
ltoes 20.8119
2340
root 8.71606 15.1922 37.6873 2.14576 52.4226 -357.534
lowerback 7.39431 -0.14485 2.79738
upperback 2.55119 0.121227 2.85515
thorax -1.51182 0.082625 1.36059
lowerneck 0.70194 6.54813 7.48173
upperneck -2.94629 8.72823 -15.7515
head 0.0822056 4.51206 -5.9036
rclavicle -8.28932e-014 1.59028e-014
rhumerus -27.6969 9.17272 -82.8413
rradius 31.2328
rwrist 17.3895
rhand -3.2643 -53.8005
rfingers 7.12502
rthumb 22.4603 -82.5145
lclavicle -8.28932e-014 1.59028e-014
lhumerus -30.5864 -37.8584 108.379
lradius 41.8777
lwrist -6.80585
lhand -0.621083 -36.5723
lfingers 7.12502
lthumb 24.9954 -8.18737
rfemur -10.0405 -2.24677 23.8465
rtibia 36.7182
rfoot -40.4116 -41.8733
rtoes 47.7198
lfemur -12.9886 -1.9813 -28.4363
ltibia 29.0486
lfoot -26.4685 22.6972
ltoes 18.2326
2341
root 8.73554 15.1903 37.6848 2.50015 53.7083 -356.915
lowerback 7.45347 -0.076601 2.68647
upperback 2.61583 0.199874 2.65409
thorax -1.478 0.122523 1.20836
lowerneck 1.34598 6.56021 7.71316
upperneck -3.70352 8.696 -15.9946
head -0.225096 4.54612 -6.06045
rclavicle 6.87795e-014 -2.8625e-014
rhumerus -27.8834 8.81485 -82.8536
rradius 30.7458
rwrist 18.5475
rhand -3.63344 -53.3911
rfingers 7.12502
rthumb 22.1059 -82.1474
lclavicle 6.87795e-014 -2.8625e-014
lhumerus -30.6963 -38.5113 108.212
lradius 42.3144
lwrist -6.88027
lhand -2.0446 -37.099
lfingers 7.12502
lthumb 23.6306 -8.53123
rfemur -10.2516 -3.19525 23.2818
rtibia 37.8868
rfoot -39.1118 -41.2719
rtoes 47.8709
lfemur -12.6011 -2.10689 -28.8858
ltibia 28.6579
lfoot -25.7384 22.0222
ltoes 16.0933
2342
root 8.74428 15.184 37.6776 3.0626 55.154 -356.007
lowerback 7.82719 -0.0910003 2.30845
upperback 2.62461 0.166083 2.50357
thorax -1.67693 0.104239 1.26847
lowerneck 1.4312 6.68125 7.91935
upperneck -3.84333 8.85806 -16.2932
head -0.23507 4.63884 -6.18814
rclavicle 6.52014e-014 3.18055e-015
rhumerus -28.0709 8.83778 -82.9181
rradius 30.8618
rwrist 18.5164
rhand -3.29089 -53.24
rfingers 7.12502
rthumb 22.4348 -81.957
lclavicle 6.52014e-014 3.18055e-015
lhumerus -30.3756 -38.8841 107.889
lradius 42.2334
lwrist -6.9613
lhand -3.36633 -38.3952
lfingers 7.12502
lthumb 22.3623 -9.66949
rfemur -10.4834 -4.37073 22.5464
rtibia 39.1985
rfoot -37.4164 -40.9097
rtoes 47.9568
lfemur -12.1652 -2.42083 -29.4843
ltibia 28.2037
lfoot -25.0209 21.3069
ltoes 14.5337
2343
root 8.76077 15.1673 37.6796 3.65302 56.2632 -355.183
lowerback 7.91935 -0.0184133 1.88177
upperback 2.70412 0.229228 2.39944
thorax -1.64771 0.135812 1.39471
lowerneck 0.995844 6.91434 7.76476
upperneck -3.49228 9.19601 -16.1653
head -0.0333546 4.7805 -6.08608
rclavicle 6.85807e-014 -9.54166e-015
rhumerus -28.0648 8.69375 -82.9153
rradius 30.8962
rwrist 18.6506
rhand -2.94288 -52.935
rfingers 7.12502
rthumb 22.7688 -81.6114
lclavicle 6.85807e-014 -9.54166e-015
lhumerus -29.8489 -38.6994 107.477
lradius 42.1733
lwrist -6.78466
lhand -3.45265 -39.17
lfingers 7.12502
lthumb 22.2795 -10.4343
rfemur -10.8241 -5.42344 21.8883
rtibia 40.5712
rfoot -35.956 -40.2773
rtoes 48.4682
lfemur -11.8336 -2.33663 -29.9559
ltibia 27.8154
lfoot -24.5191 20.4197
ltoes 13.7288
2344
root 8.77817 15.1484 37.6867 4.02124 57.4739 -354.67
lowerback 7.9229 0.0453144 1.68428
upperback 2.7562 0.297125 2.34075
thorax -1.59743 0.170097 1.43877
lowerneck 1.84191 7.06767 7.99185
upperneck -4.2759 9.36349 -16.4653
head -0.353055 4.92529 -6.26644
rclavicle 4.27387e-014 -1.11319e-014
rhumerus -28.0762 8.21482 -82.8439
rradius 30.6834
rwrist 19.1663
rhand -2.62144 -52.4775
rfingers 7.12502
rthumb 23.0772 -81.1156
lclavicle 4.27387e-014 -1.11319e-014
lhumerus -29.5131 -38.4709 107.179
lradius 42.4514
lwrist -6.25246
lhand -2.77414 -39.2055
lfingers 7.12502
lthumb 22.9307 -10.5491
rfemur -11.116 -5.93637 21.5456
rtibia 41.8652
rfoot -35.9558 -39.3758
rtoes 50.2135
lfemur -11.5811 -2.27216 -30.1903
ltibia 27.5692
lfoot -24.2982 19.2389
ltoes 13.9879
2345
root 8.79662 15.1418 37.6951 4.09451 58.7548 -354.533
lowerback 7.84179 0.147503 1.8073
upperback 2.76928 0.43877 2.2881
thorax -1.53955 0.241795 1.30252
lowerneck 1.65016 7.17818 8.19416
upperneck -3.78003 9.57079 -16.6647
head -0.131165 5.0084 -6.33235
rclavicle -2.60408e-014 -3.49861e-014
rhumerus -28.3097 7.6204 -82.8116
rradius 30.7535
rwrist 19.4629
rhand -2.7032 -52.4403
rfingers 7.12502
rthumb 22.9988 -81.0882
lclavicle -2.60408e-014 -3.49861e-014
lhumerus -29.4348 -38.9033 106.93
lradius 42.2605
lwrist -6.86135
lhand -5.02264 -40.3309
lfingers 7.12502
lthumb 20.7717 -11.4227
rfemur -11.474 -6.58245 21.4251
rtibia 43.0693
rfoot -34.4285 -39.3743
rtoes 50.3308
lfemur -11.4193 -2.37292 -30.1803
ltibia 27.5307
lfoot -24.1597 18.1477
ltoes 14.0622
